TITLE ""
FILE "LR_black_phrase_E_03.mp3" MP3
  TRACK 01 AUDIO
    TITLE "LR_black_phrase_E_03_001"
    INDEX 01 00:00:00
  TRACK 02 AUDIO
    TITLE "LR_black_phrase_E_03_002"
    INDEX 01 00:00:10
  TRACK 03 AUDIO
    TITLE "LR_black_phrase_E_03_003"
    INDEX 01 00:01:29
  TRACK 04 AUDIO
    TITLE "LR_black_phrase_E_03_004"
    INDEX 01 00:01:63
  TRACK 05 AUDIO
    TITLE "LR_black_phrase_E_03_005"
    INDEX 01 00:04:06
  TRACK 06 AUDIO
    TITLE "LR_black_phrase_E_03_006"
    INDEX 01 00:04:59
  TRACK 07 AUDIO
    TITLE "LR_black_phrase_E_03_007"
    INDEX 01 00:07:03
  TRACK 08 AUDIO
    TITLE "LR_black_phrase_E_03_008"
    INDEX 01 00:08:08
  TRACK 09 AUDIO
    TITLE "LR_black_phrase_E_03_009"
    INDEX 01 00:09:31
  TRACK 10 AUDIO
    TITLE "LR_black_phrase_E_03_010"
    INDEX 01 00:09:62
  TRACK 11 AUDIO
    TITLE "LR_black_phrase_E_03_011"
    INDEX 01 00:11:51
  TRACK 12 AUDIO
    TITLE "LR_black_phrase_E_03_012"
    INDEX 01 00:12:33
  TRACK 13 AUDIO
    TITLE "LR_black_phrase_E_03_013"
    INDEX 01 00:14:22
  TRACK 14 AUDIO
    TITLE "LR_black_phrase_E_03_014"
    INDEX 01 00:15:27
  TRACK 15 AUDIO
    TITLE "LR_black_phrase_E_03_015"
    INDEX 01 00:16:50
  TRACK 16 AUDIO
    TITLE "LR_black_phrase_E_03_016"
    INDEX 01 00:17:05
  TRACK 17 AUDIO
    TITLE "LR_black_phrase_E_03_017"
    INDEX 01 00:19:39
  TRACK 18 AUDIO
    TITLE "LR_black_phrase_E_03_018"
    INDEX 01 00:20:19
  TRACK 19 AUDIO
    TITLE "LR_black_phrase_E_03_019"
    INDEX 01 00:22:55
  TRACK 20 AUDIO
    TITLE "LR_black_phrase_E_03_020"
    INDEX 01 00:23:60
  TRACK 21 AUDIO
    TITLE "LR_black_phrase_E_03_021"
    INDEX 01 00:25:08
  TRACK 22 AUDIO
    TITLE "LR_black_phrase_E_03_022"
    INDEX 01 00:25:38
  TRACK 23 AUDIO
    TITLE "LR_black_phrase_E_03_023"
    INDEX 01 00:28:01
  TRACK 24 AUDIO
    TITLE "LR_black_phrase_E_03_024"
    INDEX 01 00:28:58
  TRACK 25 AUDIO
    TITLE "LR_black_phrase_E_03_025"
    INDEX 01 00:31:23
  TRACK 26 AUDIO
    TITLE "LR_black_phrase_E_03_026"
    INDEX 01 00:32:28
  TRACK 27 AUDIO
    TITLE "LR_black_phrase_E_03_027"
    INDEX 01 00:33:65
  TRACK 28 AUDIO
    TITLE "LR_black_phrase_E_03_028"
    INDEX 01 00:34:19
  TRACK 29 AUDIO
    TITLE "LR_black_phrase_E_03_029"
    INDEX 01 00:36:34
  TRACK 30 AUDIO
    TITLE "LR_black_phrase_E_03_030"
    INDEX 01 00:37:15
  TRACK 31 AUDIO
    TITLE "LR_black_phrase_E_03_031"
    INDEX 01 00:39:28
  TRACK 32 AUDIO
    TITLE "LR_black_phrase_E_03_032"
    INDEX 01 00:40:37
  TRACK 33 AUDIO
    TITLE "LR_black_phrase_E_03_033"
    INDEX 01 00:41:50
  TRACK 34 AUDIO
    TITLE "LR_black_phrase_E_03_034"
    INDEX 01 00:42:05
  TRACK 35 AUDIO
    TITLE "LR_black_phrase_E_03_035"
    INDEX 01 00:44:10
  TRACK 36 AUDIO
    TITLE "LR_black_phrase_E_03_036"
    INDEX 01 00:44:64
  TRACK 37 AUDIO
    TITLE "LR_black_phrase_E_03_037"
    INDEX 01 00:46:71
  TRACK 38 AUDIO
    TITLE "LR_black_phrase_E_03_038"
    INDEX 01 00:48:00
  TRACK 39 AUDIO
    TITLE "LR_black_phrase_E_03_039"
    INDEX 01 00:49:17
  TRACK 40 AUDIO
    TITLE "LR_black_phrase_E_03_040"
    INDEX 01 00:49:44
  TRACK 41 AUDIO
    TITLE "LR_black_phrase_E_03_041"
    INDEX 01 00:52:11
  TRACK 42 AUDIO
    TITLE "LR_black_phrase_E_03_042"
    INDEX 01 00:52:64
  TRACK 43 AUDIO
    TITLE "LR_black_phrase_E_03_043"
    INDEX 01 00:55:31
  TRACK 44 AUDIO
    TITLE "LR_black_phrase_E_03_044"
    INDEX 01 00:56:34
  TRACK 45 AUDIO
    TITLE "LR_black_phrase_E_03_045"
    INDEX 01 00:57:42
  TRACK 46 AUDIO
    TITLE "LR_black_phrase_E_03_046"
    INDEX 01 00:57:73
  TRACK 47 AUDIO
    TITLE "LR_black_phrase_E_03_047"
    INDEX 01 00:59:50
  TRACK 48 AUDIO
    TITLE "LR_black_phrase_E_03_048"
    INDEX 01 01:00:30
  TRACK 49 AUDIO
    TITLE "LR_black_phrase_E_03_049"
    INDEX 01 01:02:09
  TRACK 50 AUDIO
    TITLE "LR_black_phrase_E_03_050"
    INDEX 01 01:03:09
  TRACK 51 AUDIO
    TITLE "LR_black_phrase_E_03_051"
    INDEX 01 01:04:28
  TRACK 52 AUDIO
    TITLE "LR_black_phrase_E_03_052"
    INDEX 01 01:04:48
  TRACK 53 AUDIO
    TITLE "LR_black_phrase_E_03_053"
    INDEX 01 01:06:52
  TRACK 54 AUDIO
    TITLE "LR_black_phrase_E_03_054"
    INDEX 01 01:07:24
  TRACK 55 AUDIO
    TITLE "LR_black_phrase_E_03_055"
    INDEX 01 01:09:31
  TRACK 56 AUDIO
    TITLE "LR_black_phrase_E_03_056"
    INDEX 01 01:10:34
  TRACK 57 AUDIO
    TITLE "LR_black_phrase_E_03_057"
    INDEX 01 01:11:61
  TRACK 58 AUDIO
    TITLE "LR_black_phrase_E_03_058"
    INDEX 01 01:12:16
  TRACK 59 AUDIO
    TITLE "LR_black_phrase_E_03_059"
    INDEX 01 01:15:04
  TRACK 60 AUDIO
    TITLE "LR_black_phrase_E_03_060"
    INDEX 01 01:15:57
  TRACK 61 AUDIO
    TITLE "LR_black_phrase_E_03_061"
    INDEX 01 01:18:46
  TRACK 62 AUDIO
    TITLE "LR_black_phrase_E_03_062"
    INDEX 01 01:19:41
  TRACK 63 AUDIO
    TITLE "LR_black_phrase_E_03_063"
    INDEX 01 01:20:68
  TRACK 64 AUDIO
    TITLE "LR_black_phrase_E_03_064"
    INDEX 01 01:21:22
  TRACK 65 AUDIO
    TITLE "LR_black_phrase_E_03_065"
    INDEX 01 01:23:53
  TRACK 66 AUDIO
    TITLE "LR_black_phrase_E_03_066"
    INDEX 01 01:24:33
  TRACK 67 AUDIO
    TITLE "LR_black_phrase_E_03_067"
    INDEX 01 01:26:63
  TRACK 68 AUDIO
    TITLE "LR_black_phrase_E_03_068"
    INDEX 01 01:27:66
  TRACK 69 AUDIO
    TITLE "LR_black_phrase_E_03_069"
    INDEX 01 01:29:04
  TRACK 70 AUDIO
    TITLE "LR_black_phrase_E_03_070"
    INDEX 01 01:29:30
  TRACK 71 AUDIO
    TITLE "LR_black_phrase_E_03_071"
    INDEX 01 01:32:01
  TRACK 72 AUDIO
    TITLE "LR_black_phrase_E_03_072"
    INDEX 01 01:32:46
  TRACK 73 AUDIO
    TITLE "LR_black_phrase_E_03_073"
    INDEX 01 01:35:17
  TRACK 74 AUDIO
    TITLE "LR_black_phrase_E_03_074"
    INDEX 01 01:36:10
  TRACK 75 AUDIO
    TITLE "LR_black_phrase_E_03_075"
    INDEX 01 01:37:23
  TRACK 76 AUDIO
    TITLE "LR_black_phrase_E_03_076"
    INDEX 01 01:37:55
  TRACK 77 AUDIO
    TITLE "LR_black_phrase_E_03_077"
    INDEX 01 01:39:73
  TRACK 78 AUDIO
    TITLE "LR_black_phrase_E_03_078"
    INDEX 01 01:40:61
  TRACK 79 AUDIO
    TITLE "LR_black_phrase_E_03_079"
    INDEX 01 01:43:06
  TRACK 80 AUDIO
    TITLE "LR_black_phrase_E_03_080"
    INDEX 01 01:44:20
  TRACK 81 AUDIO
    TITLE "LR_black_phrase_E_03_081"
    INDEX 01 01:45:37
  TRACK 82 AUDIO
    TITLE "LR_black_phrase_E_03_082"
    INDEX 01 01:45:68
  TRACK 83 AUDIO
    TITLE "LR_black_phrase_E_03_083"
    INDEX 01 01:48:06
  TRACK 84 AUDIO
    TITLE "LR_black_phrase_E_03_084"
    INDEX 01 01:48:60
  TRACK 85 AUDIO
    TITLE "LR_black_phrase_E_03_085"
    INDEX 01 01:50:73
  TRACK 86 AUDIO
    TITLE "LR_black_phrase_E_03_086"
    INDEX 01 01:51:73
  TRACK 87 AUDIO
    TITLE "LR_black_phrase_E_03_087"
    INDEX 01 01:53:24
  TRACK 88 AUDIO
    TITLE "LR_black_phrase_E_03_088"
    INDEX 01 01:53:52
  TRACK 89 AUDIO
    TITLE "LR_black_phrase_E_03_089"
    INDEX 01 01:56:29
  TRACK 90 AUDIO
    TITLE "LR_black_phrase_E_03_090"
    INDEX 01 01:57:01
  TRACK 91 AUDIO
    TITLE "LR_black_phrase_E_03_091"
    INDEX 01 01:59:52
  TRACK 92 AUDIO
    TITLE "LR_black_phrase_E_03_092"
    INDEX 01 02:00:48
  TRACK 93 AUDIO
    TITLE "LR_black_phrase_E_03_093"
    INDEX 01 02:02:00
  TRACK 94 AUDIO
    TITLE "LR_black_phrase_E_03_094"
    INDEX 01 02:02:33
  TRACK 95 AUDIO
    TITLE "LR_black_phrase_E_03_095"
    INDEX 01 02:04:12
  TRACK 96 AUDIO
    TITLE "LR_black_phrase_E_03_096"
    INDEX 01 02:04:58
  TRACK 97 AUDIO
    TITLE "LR_black_phrase_E_03_097"
    INDEX 01 02:06:39
  TRACK 98 AUDIO
    TITLE "LR_black_phrase_E_03_098"
    INDEX 01 02:07:32
  TRACK 99 AUDIO
    TITLE "LR_black_phrase_E_03_099"
    INDEX 01 02:08:44
  TRACK 100 AUDIO
    TITLE "LR_black_phrase_E_03_100"
    INDEX 01 02:08:67
  TRACK 101 AUDIO
    TITLE "LR_black_phrase_E_03_101"
    INDEX 01 02:11:71
  TRACK 102 AUDIO
    TITLE "LR_black_phrase_E_03_102"
    INDEX 01 02:12:45
  TRACK 103 AUDIO
    TITLE "LR_black_phrase_E_03_103"
    INDEX 01 02:15:52
  TRACK 104 AUDIO
    TITLE "LR_black_phrase_E_03_104"
    INDEX 01 02:16:47
  TRACK 105 AUDIO
    TITLE "LR_black_phrase_E_03_105"
    INDEX 01 02:17:64
  TRACK 106 AUDIO
    TITLE "LR_black_phrase_E_03_106"
    INDEX 01 02:18:19
  TRACK 107 AUDIO
    TITLE "LR_black_phrase_E_03_107"
    INDEX 01 02:20:72
  TRACK 108 AUDIO
    TITLE "LR_black_phrase_E_03_108"
    INDEX 01 02:21:50
  TRACK 109 AUDIO
    TITLE "LR_black_phrase_E_03_109"
    INDEX 01 02:24:29
  TRACK 110 AUDIO
    TITLE "LR_black_phrase_E_03_110"
    INDEX 01 02:25:28
  TRACK 111 AUDIO
    TITLE "LR_black_phrase_E_03_111"
    INDEX 01 02:26:61
  TRACK 112 AUDIO
    TITLE "LR_black_phrase_E_03_112"
    INDEX 01 02:27:12
  TRACK 113 AUDIO
    TITLE "LR_black_phrase_E_03_113"
    INDEX 01 02:29:30
  TRACK 114 AUDIO
    TITLE "LR_black_phrase_E_03_114"
    INDEX 01 02:30:02
  TRACK 115 AUDIO
    TITLE "LR_black_phrase_E_03_115"
    INDEX 01 02:32:21
  TRACK 116 AUDIO
    TITLE "LR_black_phrase_E_03_116"
    INDEX 01 02:33:18
  TRACK 117 AUDIO
    TITLE "LR_black_phrase_E_03_117"
    INDEX 01 02:34:47
  TRACK 118 AUDIO
    TITLE "LR_black_phrase_E_03_118"
    INDEX 01 02:34:70
  TRACK 119 AUDIO
    TITLE "LR_black_phrase_E_03_119"
    INDEX 01 02:37:00
  TRACK 120 AUDIO
    TITLE "LR_black_phrase_E_03_120"
    INDEX 01 02:37:47
  TRACK 121 AUDIO
    TITLE "LR_black_phrase_E_03_121"
    INDEX 01 02:39:54
  TRACK 122 AUDIO
    TITLE "LR_black_phrase_E_03_122"
    INDEX 01 02:40:55
  TRACK 123 AUDIO
    TITLE "LR_black_phrase_E_03_123"
    INDEX 01 02:42:03
  TRACK 124 AUDIO
    TITLE "LR_black_phrase_E_03_124"
    INDEX 01 02:42:35
  TRACK 125 AUDIO
    TITLE "LR_black_phrase_E_03_125"
    INDEX 01 02:44:39
  TRACK 126 AUDIO
    TITLE "LR_black_phrase_E_03_126"
    INDEX 01 02:45:27
  TRACK 127 AUDIO
    TITLE "LR_black_phrase_E_03_127"
    INDEX 01 02:47:40
  TRACK 128 AUDIO
    TITLE "LR_black_phrase_E_03_128"
    INDEX 01 02:48:45
  TRACK 129 AUDIO
    TITLE "LR_black_phrase_E_03_129"
    INDEX 01 02:50:09
  TRACK 130 AUDIO
    TITLE "LR_black_phrase_E_03_130"
    INDEX 01 02:50:40
  TRACK 131 AUDIO
    TITLE "LR_black_phrase_E_03_131"
    INDEX 01 02:52:37
  TRACK 132 AUDIO
    TITLE "LR_black_phrase_E_03_132"
    INDEX 01 02:53:17
  TRACK 133 AUDIO
    TITLE "LR_black_phrase_E_03_133"
    INDEX 01 02:55:14
  TRACK 134 AUDIO
    TITLE "LR_black_phrase_E_03_134"
    INDEX 01 02:56:19
  TRACK 135 AUDIO
    TITLE "LR_black_phrase_E_03_135"
    INDEX 01 02:57:46
  TRACK 136 AUDIO
    TITLE "LR_black_phrase_E_03_136"
    INDEX 01 02:58:02
  TRACK 137 AUDIO
    TITLE "LR_black_phrase_E_03_137"
    INDEX 01 02:59:70
  TRACK 138 AUDIO
    TITLE "LR_black_phrase_E_03_138"
    INDEX 01 03:00:50
  TRACK 139 AUDIO
    TITLE "LR_black_phrase_E_03_139"
    INDEX 01 03:02:43
  TRACK 140 AUDIO
    TITLE "LR_black_phrase_E_03_140"
    INDEX 01 03:03:49
  TRACK 141 AUDIO
    TITLE "LR_black_phrase_E_03_141"
    INDEX 01 03:04:66
  TRACK 142 AUDIO
    TITLE "LR_black_phrase_E_03_142"
    INDEX 01 03:05:18
  TRACK 143 AUDIO
    TITLE "LR_black_phrase_E_03_143"
    INDEX 01 03:07:31
  TRACK 144 AUDIO
    TITLE "LR_black_phrase_E_03_144"
    INDEX 01 03:08:12
  TRACK 145 AUDIO
    TITLE "LR_black_phrase_E_03_145"
    INDEX 01 03:10:23
  TRACK 146 AUDIO
    TITLE "LR_black_phrase_E_03_146"
    INDEX 01 03:11:28
  TRACK 147 AUDIO
    TITLE "LR_black_phrase_E_03_147"
    INDEX 01 03:12:49
  TRACK 148 AUDIO
    TITLE "LR_black_phrase_E_03_148"
    INDEX 01 03:13:04
  TRACK 149 AUDIO
    TITLE "LR_black_phrase_E_03_149"
    INDEX 01 03:15:26
  TRACK 150 AUDIO
    TITLE "LR_black_phrase_E_03_150"
    INDEX 01 03:16:04
  TRACK 151 AUDIO
    TITLE "LR_black_phrase_E_03_151"
    INDEX 01 03:18:27
  TRACK 152 AUDIO
    TITLE "LR_black_phrase_E_03_152"
    INDEX 01 03:19:30
  TRACK 153 AUDIO
    TITLE "LR_black_phrase_E_03_153"
    INDEX 01 03:20:43
  TRACK 154 AUDIO
    TITLE "LR_black_phrase_E_03_154"
    INDEX 01 03:20:73
  TRACK 155 AUDIO
    TITLE "LR_black_phrase_E_03_155"
    INDEX 01 03:22:64
  TRACK 156 AUDIO
    TITLE "LR_black_phrase_E_03_156"
    INDEX 01 03:23:41
  TRACK 157 AUDIO
    TITLE "LR_black_phrase_E_03_157"
    INDEX 01 03:25:33
  TRACK 158 AUDIO
    TITLE "LR_black_phrase_E_03_158"
    INDEX 01 03:26:38
  TRACK 159 AUDIO
    TITLE "LR_black_phrase_E_03_159"
    INDEX 01 03:27:49
  TRACK 160 AUDIO
    TITLE "LR_black_phrase_E_03_160"
    INDEX 01 03:28:03
  TRACK 161 AUDIO
    TITLE "LR_black_phrase_E_03_161"
    INDEX 01 03:30:45
  TRACK 162 AUDIO
    TITLE "LR_black_phrase_E_03_162"
    INDEX 01 03:31:23
  TRACK 163 AUDIO
    TITLE "LR_black_phrase_E_03_163"
    INDEX 01 03:33:65
  TRACK 164 AUDIO
    TITLE "LR_black_phrase_E_03_164"
    INDEX 01 03:34:69
  TRACK 165 AUDIO
    TITLE "LR_black_phrase_E_03_165"
    INDEX 01 03:36:07
  TRACK 166 AUDIO
    TITLE "LR_black_phrase_E_03_166"
    INDEX 01 03:36:36
  TRACK 167 AUDIO
    TITLE "LR_black_phrase_E_03_167"
    INDEX 01 03:38:10
  TRACK 168 AUDIO
    TITLE "LR_black_phrase_E_03_168"
    INDEX 01 03:38:66
  TRACK 169 AUDIO
    TITLE "LR_black_phrase_E_03_169"
    INDEX 01 03:40:36
  TRACK 170 AUDIO
    TITLE "LR_black_phrase_E_03_170"
    INDEX 01 03:41:43
  TRACK 171 AUDIO
    TITLE "LR_black_phrase_E_03_171"
    INDEX 01 03:42:60
  TRACK 172 AUDIO
    TITLE "LR_black_phrase_E_03_172"
    INDEX 01 03:43:15
  TRACK 173 AUDIO
    TITLE "LR_black_phrase_E_03_173"
    INDEX 01 03:46:52
  TRACK 174 AUDIO
    TITLE "LR_black_phrase_E_03_174"
    INDEX 01 03:47:32
  TRACK 175 AUDIO
    TITLE "LR_black_phrase_E_03_175"
    INDEX 01 03:50:72
  TRACK 176 AUDIO
    TITLE "LR_black_phrase_E_03_176"
    INDEX 01 03:52:00
  TRACK 177 AUDIO
    TITLE "LR_black_phrase_E_03_177"
    INDEX 01 03:53:27
  TRACK 178 AUDIO
    TITLE "LR_black_phrase_E_03_178"
    INDEX 01 03:53:58
  TRACK 179 AUDIO
    TITLE "LR_black_phrase_E_03_179"
    INDEX 01 03:55:45
  TRACK 180 AUDIO
    TITLE "LR_black_phrase_E_03_180"
    INDEX 01 03:56:27
  TRACK 181 AUDIO
    TITLE "LR_black_phrase_E_03_181"
    INDEX 01 03:58:16
  TRACK 182 AUDIO
    TITLE "LR_black_phrase_E_03_182"
    INDEX 01 03:59:16
  TRACK 183 AUDIO
    TITLE "LR_black_phrase_E_03_183"
    INDEX 01 04:00:39
  TRACK 184 AUDIO
    TITLE "LR_black_phrase_E_03_184"
    INDEX 01 04:00:52
  TRACK 185 AUDIO
    TITLE "LR_black_phrase_E_03_185"
    INDEX 01 04:02:26
  TRACK 186 AUDIO
    TITLE "LR_black_phrase_E_03_186"
    INDEX 01 04:02:65
  TRACK 187 AUDIO
    TITLE "LR_black_phrase_E_03_187"
    INDEX 01 04:04:38
  TRACK 188 AUDIO
    TITLE "LR_black_phrase_E_03_188"
    INDEX 01 04:05:38
  TRACK 189 AUDIO
    TITLE "LR_black_phrase_E_03_189"
    INDEX 01 04:06:63
  TRACK 190 AUDIO
    TITLE "LR_black_phrase_E_03_190"
    INDEX 01 04:07:17
  TRACK 191 AUDIO
    TITLE "LR_black_phrase_E_03_191"
    INDEX 01 04:09:16
  TRACK 192 AUDIO
    TITLE "LR_black_phrase_E_03_192"
    INDEX 01 04:09:69
  TRACK 193 AUDIO
    TITLE "LR_black_phrase_E_03_193"
    INDEX 01 04:11:68
  TRACK 194 AUDIO
    TITLE "LR_black_phrase_E_03_194"
    INDEX 01 04:12:73
  TRACK 195 AUDIO
    TITLE "LR_black_phrase_E_03_195"
    INDEX 01 04:14:23
  TRACK 196 AUDIO
    TITLE "LR_black_phrase_E_03_196"
    INDEX 01 04:14:47
  TRACK 197 AUDIO
    TITLE "LR_black_phrase_E_03_197"
    INDEX 01 04:16:32
  TRACK 198 AUDIO
    TITLE "LR_black_phrase_E_03_198"
    INDEX 01 04:17:06
  TRACK 199 AUDIO
    TITLE "LR_black_phrase_E_03_199"
    INDEX 01 04:18:64
  TRACK 200 AUDIO
    TITLE "LR_black_phrase_E_03_200"
    INDEX 01 04:19:63
  TRACK 201 AUDIO
    TITLE "LR_black_phrase_E_03_201"
    INDEX 01 04:21:02
  TRACK 202 AUDIO
    TITLE "LR_black_phrase_E_03_202"
    INDEX 01 04:21:29
  TRACK 203 AUDIO
    TITLE "LR_black_phrase_E_03_203"
    INDEX 01 04:24:39
  TRACK 204 AUDIO
    TITLE "LR_black_phrase_E_03_204"
    INDEX 01 04:25:15
  TRACK 205 AUDIO
    TITLE "LR_black_phrase_E_03_205"
    INDEX 01 04:28:27
  TRACK 206 AUDIO
    TITLE "LR_black_phrase_E_03_206"
    INDEX 01 04:29:25
  TRACK 207 AUDIO
    TITLE "LR_black_phrase_E_03_207"
    INDEX 01 04:30:26
  TRACK 208 AUDIO
    TITLE "LR_black_phrase_E_03_208"
    INDEX 01 04:30:57
  TRACK 209 AUDIO
    TITLE "LR_black_phrase_E_03_209"
    INDEX 01 04:33:11
  TRACK 210 AUDIO
    TITLE "LR_black_phrase_E_03_210"
    INDEX 01 04:33:62
  TRACK 211 AUDIO
    TITLE "LR_black_phrase_E_03_211"
    INDEX 01 04:36:17
  TRACK 212 AUDIO
    TITLE "LR_black_phrase_E_03_212"
    INDEX 01 04:37:18
  TRACK 213 AUDIO
    TITLE "LR_black_phrase_E_03_213"
    INDEX 01 04:38:49
  TRACK 214 AUDIO
    TITLE "LR_black_phrase_E_03_214"
    INDEX 01 04:39:04
  TRACK 215 AUDIO
    TITLE "LR_black_phrase_E_03_215"
    INDEX 01 04:41:40
  TRACK 216 AUDIO
    TITLE "LR_black_phrase_E_03_216"
    INDEX 01 04:42:18
  TRACK 217 AUDIO
    TITLE "LR_black_phrase_E_03_217"
    INDEX 01 04:44:54
  TRACK 218 AUDIO
    TITLE "LR_black_phrase_E_03_218"
    INDEX 01 04:45:57
  TRACK 219 AUDIO
    TITLE "LR_black_phrase_E_03_219"
    INDEX 01 04:47:05
  TRACK 220 AUDIO
    TITLE "LR_black_phrase_E_03_220"
    INDEX 01 04:47:23
  TRACK 221 AUDIO
    TITLE "LR_black_phrase_E_03_221"
    INDEX 01 04:50:03
  TRACK 222 AUDIO
    TITLE "LR_black_phrase_E_03_222"
    INDEX 01 04:50:52
  TRACK 223 AUDIO
    TITLE "LR_black_phrase_E_03_223"
    INDEX 01 04:53:33
  TRACK 224 AUDIO
    TITLE "LR_black_phrase_E_03_224"
    INDEX 01 04:54:36
  TRACK 225 AUDIO
    TITLE "LR_black_phrase_E_03_225"
    INDEX 01 04:55:53
  TRACK 226 AUDIO
    TITLE "LR_black_phrase_E_03_226"
    INDEX 01 04:56:08
  TRACK 227 AUDIO
    TITLE "LR_black_phrase_E_03_227"
    INDEX 01 04:58:19
  TRACK 228 AUDIO
    TITLE "LR_black_phrase_E_03_228"
    INDEX 01 04:58:71
  TRACK 229 AUDIO
    TITLE "LR_black_phrase_E_03_229"
    INDEX 01 05:01:07
  TRACK 230 AUDIO
    TITLE "LR_black_phrase_E_03_230"
    INDEX 01 05:02:12
  TRACK 231 AUDIO
    TITLE "LR_black_phrase_E_03_231"
    INDEX 01 05:03:28
  TRACK 232 AUDIO
    TITLE "LR_black_phrase_E_03_232"
    INDEX 01 05:03:57
  TRACK 233 AUDIO
    TITLE "LR_black_phrase_E_03_233"
    INDEX 01 05:06:24
  TRACK 234 AUDIO
    TITLE "LR_black_phrase_E_03_234"
    INDEX 01 05:07:04
  TRACK 235 AUDIO
    TITLE "LR_black_phrase_E_03_235"
    INDEX 01 05:09:46
  TRACK 236 AUDIO
    TITLE "LR_black_phrase_E_03_236"
    INDEX 01 05:10:49
  TRACK 237 AUDIO
    TITLE "LR_black_phrase_E_03_237"
    INDEX 01 05:11:74
  TRACK 238 AUDIO
    TITLE "LR_black_phrase_E_03_238"
    INDEX 01 05:12:15
  TRACK 239 AUDIO
    TITLE "LR_black_phrase_E_03_239"
    INDEX 01 05:15:15
  TRACK 240 AUDIO
    TITLE "LR_black_phrase_E_03_240"
    INDEX 01 05:15:62
  TRACK 241 AUDIO
    TITLE "LR_black_phrase_E_03_241"
    INDEX 01 05:18:62
  TRACK 242 AUDIO
    TITLE "LR_black_phrase_E_03_242"
    INDEX 01 05:19:68
  TRACK 243 AUDIO
    TITLE "LR_black_phrase_E_03_243"
    INDEX 01 05:21:12
  TRACK 244 AUDIO
    TITLE "LR_black_phrase_E_03_244"
    INDEX 01 05:21:43
  TRACK 245 AUDIO
    TITLE "LR_black_phrase_E_03_245"
    INDEX 01 05:23:60
  TRACK 246 AUDIO
    TITLE "LR_black_phrase_E_03_246"
    INDEX 01 05:24:39
  TRACK 247 AUDIO
    TITLE "LR_black_phrase_E_03_247"
    INDEX 01 05:26:58
  TRACK 248 AUDIO
    TITLE "LR_black_phrase_E_03_248"
    INDEX 01 05:27:63
  TRACK 249 AUDIO
    TITLE "LR_black_phrase_E_03_249"
    INDEX 01 05:28:67
  TRACK 250 AUDIO
    TITLE "LR_black_phrase_E_03_250"
    INDEX 01 05:29:23
  TRACK 251 AUDIO
    TITLE "LR_black_phrase_E_03_251"
    INDEX 01 05:30:64
  TRACK 252 AUDIO
    TITLE "LR_black_phrase_E_03_252"
    INDEX 01 05:31:41
  TRACK 253 AUDIO
    TITLE "LR_black_phrase_E_03_253"
    INDEX 01 05:33:09
  TRACK 254 AUDIO
    TITLE "LR_black_phrase_E_03_254"
    INDEX 01 05:34:12
  TRACK 255 AUDIO
    TITLE "LR_black_phrase_E_03_255"
    INDEX 01 05:35:43
  TRACK 256 AUDIO
    TITLE "LR_black_phrase_E_03_256"
    INDEX 01 05:35:73
  TRACK 257 AUDIO
    TITLE "LR_black_phrase_E_03_257"
    INDEX 01 05:37:60
  TRACK 258 AUDIO
    TITLE "LR_black_phrase_E_03_258"
    INDEX 01 05:38:40
  TRACK 259 AUDIO
    TITLE "LR_black_phrase_E_03_259"
    INDEX 01 05:40:29
  TRACK 260 AUDIO
    TITLE "LR_black_phrase_E_03_260"
    INDEX 01 05:41:32
  TRACK 261 AUDIO
    TITLE "LR_black_phrase_E_03_261"
    INDEX 01 05:42:43
  TRACK 262 AUDIO
    TITLE "LR_black_phrase_E_03_262"
    INDEX 01 05:43:00
  TRACK 263 AUDIO
    TITLE "LR_black_phrase_E_03_263"
    INDEX 01 05:44:56
  TRACK 264 AUDIO
    TITLE "LR_black_phrase_E_03_264"
    INDEX 01 05:45:34
  TRACK 265 AUDIO
    TITLE "LR_black_phrase_E_03_265"
    INDEX 01 05:47:15
  TRACK 266 AUDIO
    TITLE "LR_black_phrase_E_03_266"
    INDEX 01 05:48:20
  TRACK 267 AUDIO
    TITLE "LR_black_phrase_E_03_267"
    INDEX 01 05:49:33
  TRACK 268 AUDIO
    TITLE "LR_black_phrase_E_03_268"
    INDEX 01 05:49:65
  TRACK 269 AUDIO
    TITLE "LR_black_phrase_E_03_269"
    INDEX 01 05:52:26
  TRACK 270 AUDIO
    TITLE "LR_black_phrase_E_03_270"
    INDEX 01 05:53:04
  TRACK 271 AUDIO
    TITLE "LR_black_phrase_E_03_271"
    INDEX 01 05:55:42
  TRACK 272 AUDIO
    TITLE "LR_black_phrase_E_03_272"
    INDEX 01 05:56:47
  TRACK 273 AUDIO
    TITLE "LR_black_phrase_E_03_273"
    INDEX 01 05:57:51
  TRACK 274 AUDIO
    TITLE "LR_black_phrase_E_03_274"
    INDEX 01 05:58:05
  TRACK 275 AUDIO
    TITLE "LR_black_phrase_E_03_275"
    INDEX 01 05:59:61
  TRACK 276 AUDIO
    TITLE "LR_black_phrase_E_03_276"
    INDEX 01 06:00:41
  TRACK 277 AUDIO
    TITLE "LR_black_phrase_E_03_277"
    INDEX 01 06:02:20
  TRACK 278 AUDIO
    TITLE "LR_black_phrase_E_03_278"
    INDEX 01 06:03:24
  TRACK 279 AUDIO
    TITLE "LR_black_phrase_E_03_279"
    INDEX 01 06:04:29
  TRACK 280 AUDIO
    TITLE "LR_black_phrase_E_03_280"
    INDEX 01 06:04:55
  TRACK 281 AUDIO
    TITLE "LR_black_phrase_E_03_281"
    INDEX 01 06:07:04
  TRACK 282 AUDIO
    TITLE "LR_black_phrase_E_03_282"
    INDEX 01 06:07:61
  TRACK 283 AUDIO
    TITLE "LR_black_phrase_E_03_283"
    INDEX 01 06:10:10
  TRACK 284 AUDIO
    TITLE "LR_black_phrase_E_03_284"
    INDEX 01 06:11:15
  TRACK 285 AUDIO
    TITLE "LR_black_phrase_E_03_285"
    INDEX 01 06:12:29
  TRACK 286 AUDIO
    TITLE "LR_black_phrase_E_03_286"
    INDEX 01 06:12:60
  TRACK 287 AUDIO
    TITLE "LR_black_phrase_E_03_287"
    INDEX 01 06:15:31
  TRACK 288 AUDIO
    TITLE "LR_black_phrase_E_03_288"
    INDEX 01 06:16:13
  TRACK 289 AUDIO
    TITLE "LR_black_phrase_E_03_289"
    INDEX 01 06:18:59
  TRACK 290 AUDIO
    TITLE "LR_black_phrase_E_03_290"
    INDEX 01 06:19:64
  TRACK 291 AUDIO
    TITLE "LR_black_phrase_E_03_291"
    INDEX 01 06:21:00
  TRACK 292 AUDIO
    TITLE "LR_black_phrase_E_03_292"
    INDEX 01 06:21:30
  TRACK 293 AUDIO
    TITLE "LR_black_phrase_E_03_293"
    INDEX 01 06:23:42
  TRACK 294 AUDIO
    TITLE "LR_black_phrase_E_03_294"
    INDEX 01 06:24:22
  TRACK 295 AUDIO
    TITLE "LR_black_phrase_E_03_295"
    INDEX 01 06:26:35
  TRACK 296 AUDIO
    TITLE "LR_black_phrase_E_03_296"
    INDEX 01 06:27:40
  TRACK 297 AUDIO
    TITLE "LR_black_phrase_E_03_297"
    INDEX 01 06:28:61
  TRACK 298 AUDIO
    TITLE "LR_black_phrase_E_03_298"
    INDEX 01 06:29:19
  TRACK 299 AUDIO
    TITLE "LR_black_phrase_E_03_299"
    INDEX 01 06:31:26
  TRACK 300 AUDIO
    TITLE "LR_black_phrase_E_03_300"
    INDEX 01 06:32:08
  TRACK 301 AUDIO
    TITLE "LR_black_phrase_E_03_301"
    INDEX 01 06:34:13
  TRACK 302 AUDIO
    TITLE "LR_black_phrase_E_03_302"
    INDEX 01 06:35:10
  TRACK 303 AUDIO
    TITLE "LR_black_phrase_E_03_303"
    INDEX 01 06:36:53
  TRACK 304 AUDIO
    TITLE "LR_black_phrase_E_03_304"
    INDEX 01 06:36:74
  TRACK 305 AUDIO
    TITLE "LR_black_phrase_E_03_305"
    INDEX 01 06:39:61
  TRACK 306 AUDIO
    TITLE "LR_black_phrase_E_03_306"
    INDEX 01 06:40:33
  TRACK 307 AUDIO
    TITLE "LR_black_phrase_E_03_307"
    INDEX 01 06:43:19
  TRACK 308 AUDIO
    TITLE "LR_black_phrase_E_03_308"
    INDEX 01 06:44:15
  TRACK 309 AUDIO
    TITLE "LR_black_phrase_E_03_309"
    INDEX 01 06:45:38
  TRACK 310 AUDIO
    TITLE "LR_black_phrase_E_03_310"
    INDEX 01 06:45:57
  TRACK 311 AUDIO
    TITLE "LR_black_phrase_E_03_311"
    INDEX 01 06:47:74
  TRACK 312 AUDIO
    TITLE "LR_black_phrase_E_03_312"
    INDEX 01 06:48:42
  TRACK 313 AUDIO
    TITLE "LR_black_phrase_E_03_313"
    INDEX 01 06:50:59
  TRACK 314 AUDIO
    TITLE "LR_black_phrase_E_03_314"
    INDEX 01 06:51:52
  TRACK 315 AUDIO
    TITLE "LR_black_phrase_E_03_315"
    INDEX 01 06:53:06
  TRACK 316 AUDIO
    TITLE "LR_black_phrase_E_03_316"
    INDEX 01 06:53:30
  TRACK 317 AUDIO
    TITLE "LR_black_phrase_E_03_317"
    INDEX 01 06:55:28
  TRACK 318 AUDIO
    TITLE "LR_black_phrase_E_03_318"
    INDEX 01 06:56:01
  TRACK 319 AUDIO
    TITLE "LR_black_phrase_E_03_319"
    INDEX 01 06:58:01
  TRACK 320 AUDIO
    TITLE "LR_black_phrase_E_03_320"
    INDEX 01 06:58:72
  TRACK 321 AUDIO
    TITLE "LR_black_phrase_E_03_321"
    INDEX 01 07:00:30
  TRACK 322 AUDIO
    TITLE "LR_black_phrase_E_03_322"
    INDEX 01 07:00:61
  TRACK 323 AUDIO
    TITLE "LR_black_phrase_E_03_323"
    INDEX 01 07:03:22
  TRACK 324 AUDIO
    TITLE "LR_black_phrase_E_03_324"
    INDEX 01 07:04:02
  TRACK 325 AUDIO
    TITLE "LR_black_phrase_E_03_325"
    INDEX 01 07:06:38
  TRACK 326 AUDIO
    TITLE "LR_black_phrase_E_03_326"
    INDEX 01 07:07:45
  TRACK 327 AUDIO
    TITLE "LR_black_phrase_E_03_327"
    INDEX 01 07:08:57
  TRACK 328 AUDIO
    TITLE "LR_black_phrase_E_03_328"
    INDEX 01 07:09:03
  TRACK 329 AUDIO
    TITLE "LR_black_phrase_E_03_329"
    INDEX 01 07:11:49
  TRACK 330 AUDIO
    TITLE "LR_black_phrase_E_03_330"
    INDEX 01 07:12:25
  TRACK 331 AUDIO
    TITLE "LR_black_phrase_E_03_331"
    INDEX 01 07:14:69
  TRACK 332 AUDIO
    TITLE "LR_black_phrase_E_03_332"
    INDEX 01 07:15:66
  TRACK 333 AUDIO
    TITLE "LR_black_phrase_E_03_333"
    INDEX 01 07:17:22
  TRACK 334 AUDIO
    TITLE "LR_black_phrase_E_03_334"
    INDEX 01 07:17:52
  TRACK 335 AUDIO
    TITLE "LR_black_phrase_E_03_335"
    INDEX 01 07:19:47
  TRACK 336 AUDIO
    TITLE "LR_black_phrase_E_03_336"
    INDEX 01 07:20:24
  TRACK 337 AUDIO
    TITLE "LR_black_phrase_E_03_337"
    INDEX 01 07:22:19
  TRACK 338 AUDIO
    TITLE "LR_black_phrase_E_03_338"
    INDEX 01 07:23:23
  TRACK 339 AUDIO
    TITLE "LR_black_phrase_E_03_339"
    INDEX 01 07:24:32
  TRACK 340 AUDIO
    TITLE "LR_black_phrase_E_03_340"
    INDEX 01 07:24:60
  TRACK 341 AUDIO
    TITLE "LR_black_phrase_E_03_341"
    INDEX 01 07:27:07
  TRACK 342 AUDIO
    TITLE "LR_black_phrase_E_03_342"
    INDEX 01 07:27:52
  TRACK 343 AUDIO
    TITLE "LR_black_phrase_E_03_343"
    INDEX 01 07:29:74
  TRACK 344 AUDIO
    TITLE "LR_black_phrase_E_03_344"
    INDEX 01 07:30:70
  TRACK 345 AUDIO
    TITLE "LR_black_phrase_E_03_345"
    INDEX 01 07:32:24
  TRACK 346 AUDIO
    TITLE "LR_black_phrase_E_03_346"
    INDEX 01 07:32:49
  TRACK 347 AUDIO
    TITLE "LR_black_phrase_E_03_347"
    INDEX 01 07:34:44
  TRACK 348 AUDIO
    TITLE "LR_black_phrase_E_03_348"
    INDEX 01 07:35:14
  TRACK 349 AUDIO
    TITLE "LR_black_phrase_E_03_349"
    INDEX 01 07:37:09
  TRACK 350 AUDIO
    TITLE "LR_black_phrase_E_03_350"
    INDEX 01 07:38:07
  TRACK 351 AUDIO
    TITLE "LR_black_phrase_E_03_351"
    INDEX 01 07:39:28
  TRACK 352 AUDIO
    TITLE "LR_black_phrase_E_03_352"
    INDEX 01 07:39:47
  TRACK 353 AUDIO
    TITLE "LR_black_phrase_E_03_353"
    INDEX 01 07:42:20
  TRACK 354 AUDIO
    TITLE "LR_black_phrase_E_03_354"
    INDEX 01 07:42:67
  TRACK 355 AUDIO
    TITLE "LR_black_phrase_E_03_355"
    INDEX 01 07:45:42
  TRACK 356 AUDIO
    TITLE "LR_black_phrase_E_03_356"
    INDEX 01 07:46:38
  TRACK 357 AUDIO
    TITLE "LR_black_phrase_E_03_357"
    INDEX 01 07:47:59
  TRACK 358 AUDIO
    TITLE "LR_black_phrase_E_03_358"
    INDEX 01 07:48:05
  TRACK 359 AUDIO
    TITLE "LR_black_phrase_E_03_359"
    INDEX 01 07:50:00
  TRACK 360 AUDIO
    TITLE "LR_black_phrase_E_03_360"
    INDEX 01 07:50:45
  TRACK 361 AUDIO
    TITLE "LR_black_phrase_E_03_361"
    INDEX 01 07:52:40
  TRACK 362 AUDIO
    TITLE "LR_black_phrase_E_03_362"
    INDEX 01 07:53:40
  TRACK 363 AUDIO
    TITLE "LR_black_phrase_E_03_363"
    INDEX 01 07:55:01
  TRACK 364 AUDIO
    TITLE "LR_black_phrase_E_03_364"
    INDEX 01 07:55:29
  TRACK 365 AUDIO
    TITLE "LR_black_phrase_E_03_365"
    INDEX 01 07:58:04
  TRACK 366 AUDIO
    TITLE "LR_black_phrase_E_03_366"
    INDEX 01 07:58:60
  TRACK 367 AUDIO
    TITLE "LR_black_phrase_E_03_367"
    INDEX 01 08:01:35
  TRACK 368 AUDIO
    TITLE "LR_black_phrase_E_03_368"
    INDEX 01 08:02:43
  TRACK 369 AUDIO
    TITLE "LR_black_phrase_E_03_369"
    INDEX 01 08:03:56
  TRACK 370 AUDIO
    TITLE "LR_black_phrase_E_03_370"
    INDEX 01 08:04:10
  TRACK 371 AUDIO
    TITLE "LR_black_phrase_E_03_371"
    INDEX 01 08:06:13
  TRACK 372 AUDIO
    TITLE "LR_black_phrase_E_03_372"
    INDEX 01 08:06:68
  TRACK 373 AUDIO
    TITLE "LR_black_phrase_E_03_373"
    INDEX 01 08:08:72
  TRACK 374 AUDIO
    TITLE "LR_black_phrase_E_03_374"
    INDEX 01 08:09:74
  TRACK 375 AUDIO
    TITLE "LR_black_phrase_E_03_375"
    INDEX 01 08:11:32
  TRACK 376 AUDIO
    TITLE "LR_black_phrase_E_03_376"
    INDEX 01 08:11:59
  TRACK 377 AUDIO
    TITLE "LR_black_phrase_E_03_377"
    INDEX 01 08:13:54
  TRACK 378 AUDIO
    TITLE "LR_black_phrase_E_03_378"
    INDEX 01 08:14:34
  TRACK 379 AUDIO
    TITLE "LR_black_phrase_E_03_379"
    INDEX 01 08:16:31
  TRACK 380 AUDIO
    TITLE "LR_black_phrase_E_03_380"
    INDEX 01 08:17:34
  TRACK 381 AUDIO
    TITLE "LR_black_phrase_E_03_381"
    INDEX 01 08:18:57
  TRACK 382 AUDIO
    TITLE "LR_black_phrase_E_03_382"
    INDEX 01 08:19:10
  TRACK 383 AUDIO
    TITLE "LR_black_phrase_E_03_383"
    INDEX 01 08:21:26
  TRACK 384 AUDIO
    TITLE "LR_black_phrase_E_03_384"
    INDEX 01 08:22:04
  TRACK 385 AUDIO
    TITLE "LR_black_phrase_E_03_385"
    INDEX 01 08:24:21
  TRACK 386 AUDIO
    TITLE "LR_black_phrase_E_03_386"
    INDEX 01 08:25:24
  TRACK 387 AUDIO
    TITLE "LR_black_phrase_E_03_387"
    INDEX 01 08:26:43
  TRACK 388 AUDIO
    TITLE "LR_black_phrase_E_03_388"
    INDEX 01 08:26:72
  TRACK 389 AUDIO
    TITLE "LR_black_phrase_E_03_389"
    INDEX 01 08:28:56
  TRACK 390 AUDIO
    TITLE "LR_black_phrase_E_03_390"
    INDEX 01 08:29:35
  TRACK 391 AUDIO
    TITLE "LR_black_phrase_E_03_391"
    INDEX 01 08:31:17
  TRACK 392 AUDIO
    TITLE "LR_black_phrase_E_03_392"
    INDEX 01 08:32:22
  TRACK 393 AUDIO
    TITLE "LR_black_phrase_E_03_393"
    INDEX 01 08:33:35
  TRACK 394 AUDIO
    TITLE "LR_black_phrase_E_03_394"
    INDEX 01 08:33:65
  TRACK 395 AUDIO
    TITLE "LR_black_phrase_E_03_395"
    INDEX 01 08:36:18
  TRACK 396 AUDIO
    TITLE "LR_black_phrase_E_03_396"
    INDEX 01 08:36:73
  TRACK 397 AUDIO
    TITLE "LR_black_phrase_E_03_397"
    INDEX 01 08:39:24
  TRACK 398 AUDIO
    TITLE "LR_black_phrase_E_03_398"
    INDEX 01 08:40:29
  TRACK 399 AUDIO
    TITLE "LR_black_phrase_E_03_399"
    INDEX 01 08:41:39
  TRACK 400 AUDIO
    TITLE "LR_black_phrase_E_03_400"
    INDEX 01 08:41:70
  TRACK 401 AUDIO
    TITLE "LR_black_phrase_E_03_401"
    INDEX 01 08:43:65
  TRACK 402 AUDIO
    TITLE "LR_black_phrase_E_03_402"
    INDEX 01 08:44:45
  TRACK 403 AUDIO
    TITLE "LR_black_phrase_E_03_403"
    INDEX 01 08:46:40
  TRACK 404 AUDIO
    TITLE "LR_black_phrase_E_03_404"
    INDEX 01 08:47:45
  TRACK 405 AUDIO
    TITLE "LR_black_phrase_E_03_405"
    INDEX 01 08:48:74
  TRACK 406 AUDIO
    TITLE "LR_black_phrase_E_03_406"
    INDEX 01 08:49:26
  TRACK 407 AUDIO
    TITLE "LR_black_phrase_E_03_407"
    INDEX 01 08:52:01
  TRACK 408 AUDIO
    TITLE "LR_black_phrase_E_03_408"
    INDEX 01 08:52:54
  TRACK 409 AUDIO
    TITLE "LR_black_phrase_E_03_409"
    INDEX 01 08:55:29
  TRACK 410 AUDIO
    TITLE "LR_black_phrase_E_03_410"
    INDEX 01 08:56:34
  TRACK 411 AUDIO
    TITLE "LR_black_phrase_E_03_411"
    INDEX 01 08:57:49
  TRACK 412 AUDIO
    TITLE "LR_black_phrase_E_03_412"
    INDEX 01 08:58:06
  TRACK 413 AUDIO
    TITLE "LR_black_phrase_E_03_413"
    INDEX 01 09:00:38
  TRACK 414 AUDIO
    TITLE "LR_black_phrase_E_03_414"
    INDEX 01 09:01:20
  TRACK 415 AUDIO
    TITLE "LR_black_phrase_E_03_415"
    INDEX 01 09:03:50
  TRACK 416 AUDIO
    TITLE "LR_black_phrase_E_03_416"
    INDEX 01 09:04:55
  TRACK 417 AUDIO
    TITLE "LR_black_phrase_E_03_417"
    INDEX 01 09:06:13
  TRACK 418 AUDIO
    TITLE "LR_black_phrase_E_03_418"
    INDEX 01 09:06:42
  TRACK 419 AUDIO
    TITLE "LR_black_phrase_E_03_419"
    INDEX 01 09:09:10
  TRACK 420 AUDIO
    TITLE "LR_black_phrase_E_03_420"
    INDEX 01 09:09:57
  TRACK 421 AUDIO
    TITLE "LR_black_phrase_E_03_421"
    INDEX 01 09:12:24
  TRACK 422 AUDIO
    TITLE "LR_black_phrase_E_03_422"
    INDEX 01 09:13:17
  TRACK 423 AUDIO
    TITLE "LR_black_phrase_E_03_423"
    INDEX 01 09:14:42
  TRACK 424 AUDIO
    TITLE "LR_black_phrase_E_03_424"
    INDEX 01 09:14:66
  TRACK 425 AUDIO
    TITLE "LR_black_phrase_E_03_425"
    INDEX 01 09:17:56
  TRACK 426 AUDIO
    TITLE "LR_black_phrase_E_03_426"
    INDEX 01 09:18:28
  TRACK 427 AUDIO
    TITLE "LR_black_phrase_E_03_427"
    INDEX 01 09:21:19
  TRACK 428 AUDIO
    TITLE "LR_black_phrase_E_03_428"
    INDEX 01 09:22:18
  TRACK 429 AUDIO
    TITLE "LR_black_phrase_E_03_429"
    INDEX 01 09:23:27
  TRACK 430 AUDIO
    TITLE "LR_black_phrase_E_03_430"
    INDEX 01 09:23:53
  TRACK 431 AUDIO
    TITLE "LR_black_phrase_E_03_431"
    INDEX 01 09:26:33
  TRACK 432 AUDIO
    TITLE "LR_black_phrase_E_03_432"
    INDEX 01 09:27:07
  TRACK 433 AUDIO
    TITLE "LR_black_phrase_E_03_433"
    INDEX 01 09:29:63
  TRACK 434 AUDIO
    TITLE "LR_black_phrase_E_03_434"
    INDEX 01 09:30:63
  TRACK 435 AUDIO
    TITLE "LR_black_phrase_E_03_435"
    INDEX 01 09:31:74
  TRACK 436 AUDIO
    TITLE "LR_black_phrase_E_03_436"
    INDEX 01 09:32:20
  TRACK 437 AUDIO
    TITLE "LR_black_phrase_E_03_437"
    INDEX 01 09:34:56
  TRACK 438 AUDIO
    TITLE "LR_black_phrase_E_03_438"
    INDEX 01 09:35:34
  TRACK 439 AUDIO
    TITLE "LR_black_phrase_E_03_439"
    INDEX 01 09:37:72
  TRACK 440 AUDIO
    TITLE "LR_black_phrase_E_03_440"
    INDEX 01 09:39:01
  TRACK 441 AUDIO
    TITLE "LR_black_phrase_E_03_441"
    INDEX 01 09:40:20
  TRACK 442 AUDIO
    TITLE "LR_black_phrase_E_03_442"
    INDEX 01 09:40:39
  TRACK 443 AUDIO
    TITLE "LR_black_phrase_E_03_443"
    INDEX 01 09:42:62
  TRACK 444 AUDIO
    TITLE "LR_black_phrase_E_03_444"
    INDEX 01 09:43:32
  TRACK 445 AUDIO
    TITLE "LR_black_phrase_E_03_445"
    INDEX 01 09:45:54
  TRACK 446 AUDIO
    TITLE "LR_black_phrase_E_03_446"
    INDEX 01 09:46:50
  TRACK 447 AUDIO
    TITLE "LR_black_phrase_E_03_447"
    INDEX 01 09:47:71
  TRACK 448 AUDIO
    TITLE "LR_black_phrase_E_03_448"
    INDEX 01 09:48:21
  TRACK 449 AUDIO
    TITLE "LR_black_phrase_E_03_449"
    INDEX 01 09:50:44
  TRACK 450 AUDIO
    TITLE "LR_black_phrase_E_03_450"
    INDEX 01 09:51:12
  TRACK 451 AUDIO
    TITLE "LR_black_phrase_E_03_451"
    INDEX 01 09:53:32
  TRACK 452 AUDIO
    TITLE "LR_black_phrase_E_03_452"
    INDEX 01 09:54:28
  TRACK 453 AUDIO
    TITLE "LR_black_phrase_E_03_453"
    INDEX 01 09:55:47
  TRACK 454 AUDIO
    TITLE "LR_black_phrase_E_03_454"
    INDEX 01 09:55:64
  TRACK 455 AUDIO
    TITLE "LR_black_phrase_E_03_455"
    INDEX 01 09:57:57
  TRACK 456 AUDIO
    TITLE "LR_black_phrase_E_03_456"
    INDEX 01 09:58:28
  TRACK 457 AUDIO
    TITLE "LR_black_phrase_E_03_457"
    INDEX 01 10:00:21
  TRACK 458 AUDIO
    TITLE "LR_black_phrase_E_03_458"
    INDEX 01 10:01:16
  TRACK 459 AUDIO
    TITLE "LR_black_phrase_E_03_459"
    INDEX 01 10:02:21
  TRACK 460 AUDIO
    TITLE "LR_black_phrase_E_03_460"
    INDEX 01 10:02:47
  TRACK 461 AUDIO
    TITLE "LR_black_phrase_E_03_461"
    INDEX 01 10:04:61
  TRACK 462 AUDIO
    TITLE "LR_black_phrase_E_03_462"
    INDEX 01 10:05:34
  TRACK 463 AUDIO
    TITLE "LR_black_phrase_E_03_463"
    INDEX 01 10:07:48
  TRACK 464 AUDIO
    TITLE "LR_black_phrase_E_03_464"
    INDEX 01 10:08:42
  TRACK 465 AUDIO
    TITLE "LR_black_phrase_E_03_465"
    INDEX 01 10:09:70
  TRACK 466 AUDIO
    TITLE "LR_black_phrase_E_03_466"
    INDEX 01 10:10:15
  TRACK 467 AUDIO
    TITLE "LR_black_phrase_E_03_467"
    INDEX 01 10:12:69
  TRACK 468 AUDIO
    TITLE "LR_black_phrase_E_03_468"
    INDEX 01 10:13:39
  TRACK 469 AUDIO
    TITLE "LR_black_phrase_E_03_469"
    INDEX 01 10:16:20
  TRACK 470 AUDIO
    TITLE "LR_black_phrase_E_03_470"
    INDEX 01 10:17:17
  TRACK 471 AUDIO
    TITLE "LR_black_phrase_E_03_471"
    INDEX 01 10:18:48
  TRACK 472 AUDIO
    TITLE "LR_black_phrase_E_03_472"
    INDEX 01 10:18:67
  TRACK 473 AUDIO
    TITLE "LR_black_phrase_E_03_473"
    INDEX 01 10:21:52
  TRACK 474 AUDIO
    TITLE "LR_black_phrase_E_03_474"
    INDEX 01 10:22:26
  TRACK 475 AUDIO
    TITLE "LR_black_phrase_E_03_475"
    INDEX 01 10:25:13
  TRACK 476 AUDIO
    TITLE "LR_black_phrase_E_03_476"
    INDEX 01 10:26:12
  TRACK 477 AUDIO
    TITLE "LR_black_phrase_E_03_477"
    INDEX 01 10:27:37
  TRACK 478 AUDIO
    TITLE "LR_black_phrase_E_03_478"
    INDEX 01 10:27:61
  TRACK 479 AUDIO
    TITLE "LR_black_phrase_E_03_479"
    INDEX 01 10:30:12
  TRACK 480 AUDIO
    TITLE "LR_black_phrase_E_03_480"
    INDEX 01 10:30:57
  TRACK 481 AUDIO
    TITLE "LR_black_phrase_E_03_481"
    INDEX 01 10:33:08
  TRACK 482 AUDIO
    TITLE "LR_black_phrase_E_03_482"
    INDEX 01 10:34:10
  TRACK 483 AUDIO
    TITLE "LR_black_phrase_E_03_483"
    INDEX 01 10:35:09
  TRACK 484 AUDIO
    TITLE "LR_black_phrase_E_03_484"
    INDEX 01 10:35:40
  TRACK 485 AUDIO
    TITLE "LR_black_phrase_E_03_485"
    INDEX 01 10:37:55
  TRACK 486 AUDIO
    TITLE "LR_black_phrase_E_03_486"
    INDEX 01 10:38:41
  TRACK 487 AUDIO
    TITLE "LR_black_phrase_E_03_487"
    INDEX 01 10:40:55
  TRACK 488 AUDIO
    TITLE "LR_black_phrase_E_03_488"
    INDEX 01 10:41:61
  TRACK 489 AUDIO
    TITLE "LR_black_phrase_E_03_489"
    INDEX 01 10:43:05
  TRACK 490 AUDIO
    TITLE "LR_black_phrase_E_03_490"
    INDEX 01 10:43:38
  TRACK 491 AUDIO
    TITLE "LR_black_phrase_E_03_491"
    INDEX 01 10:46:09
  TRACK 492 AUDIO
    TITLE "LR_black_phrase_E_03_492"
    INDEX 01 10:46:64
  TRACK 493 AUDIO
    TITLE "LR_black_phrase_E_03_493"
    INDEX 01 10:49:37
  TRACK 494 AUDIO
    TITLE "LR_black_phrase_E_03_494"
    INDEX 01 10:50:40
  TRACK 495 AUDIO
    TITLE "LR_black_phrase_E_03_495"
    INDEX 01 10:51:57
  TRACK 496 AUDIO
    TITLE "LR_black_phrase_E_03_496"
    INDEX 01 10:52:12
  TRACK 497 AUDIO
    TITLE "LR_black_phrase_E_03_497"
    INDEX 01 10:55:02
  TRACK 498 AUDIO
    TITLE "LR_black_phrase_E_03_498"
    INDEX 01 10:55:57
  TRACK 499 AUDIO
    TITLE "LR_black_phrase_E_03_499"
    INDEX 01 10:58:47
  TRACK 500 AUDIO
    TITLE "LR_black_phrase_E_03_500"
    INDEX 01 10:59:53
  TRACK 501 AUDIO
    TITLE "LR_black_phrase_E_03_501"
    INDEX 01 11:00:70
  TRACK 502 AUDIO
    TITLE "LR_black_phrase_E_03_502"
    INDEX 01 11:01:24
  TRACK 503 AUDIO
    TITLE "LR_black_phrase_E_03_503"
    INDEX 01 11:03:52
  TRACK 504 AUDIO
    TITLE "LR_black_phrase_E_03_504"
    INDEX 01 11:04:32
  TRACK 505 AUDIO
    TITLE "LR_black_phrase_E_03_505"
    INDEX 01 11:06:61
  TRACK 506 AUDIO
    TITLE "LR_black_phrase_E_03_506"
    INDEX 01 11:07:64
  TRACK 507 AUDIO
    TITLE "LR_black_phrase_E_03_507"
    INDEX 01 11:09:08
  TRACK 508 AUDIO
    TITLE "LR_black_phrase_E_03_508"
    INDEX 01 11:09:28
  TRACK 509 AUDIO
    TITLE "LR_black_phrase_E_03_509"
    INDEX 01 11:10:74
  TRACK 510 AUDIO
    TITLE "LR_black_phrase_E_03_510"
    INDEX 01 11:11:46
  TRACK 511 AUDIO
    TITLE "LR_black_phrase_E_03_511"
    INDEX 01 11:13:16
  TRACK 512 AUDIO
    TITLE "LR_black_phrase_E_03_512"
    INDEX 01 11:14:23
  TRACK 513 AUDIO
    TITLE "LR_black_phrase_E_03_513"
    INDEX 01 11:15:32
  TRACK 514 AUDIO
    TITLE "LR_black_phrase_E_03_514"
    INDEX 01 11:15:64
  TRACK 515 AUDIO
    TITLE "LR_black_phrase_E_03_515"
    INDEX 01 11:17:55
  TRACK 516 AUDIO
    TITLE "LR_black_phrase_E_03_516"
    INDEX 01 11:18:34
  TRACK 517 AUDIO
    TITLE "LR_black_phrase_E_03_517"
    INDEX 01 11:20:27
  TRACK 518 AUDIO
    TITLE "LR_black_phrase_E_03_518"
    INDEX 01 11:21:33
  TRACK 519 AUDIO
    TITLE "LR_black_phrase_E_03_519"
    INDEX 01 11:22:52
  TRACK 520 AUDIO
    TITLE "LR_black_phrase_E_03_520"
    INDEX 01 11:23:08
  TRACK 521 AUDIO
    TITLE "LR_black_phrase_E_03_521"
    INDEX 01 11:25:05
  TRACK 522 AUDIO
    TITLE "LR_black_phrase_E_03_522"
    INDEX 01 11:25:60
  TRACK 523 AUDIO
    TITLE "LR_black_phrase_E_03_523"
    INDEX 01 11:27:57
  TRACK 524 AUDIO
    TITLE "LR_black_phrase_E_03_524"
    INDEX 01 11:28:62
  TRACK 525 AUDIO
    TITLE "LR_black_phrase_E_03_525"
    INDEX 01 11:30:02
  TRACK 526 AUDIO
    TITLE "LR_black_phrase_E_03_526"
    INDEX 01 11:30:32
  TRACK 527 AUDIO
    TITLE "LR_black_phrase_E_03_527"
    INDEX 01 11:33:16
  TRACK 528 AUDIO
    TITLE "LR_black_phrase_E_03_528"
    INDEX 01 11:33:69
  TRACK 529 AUDIO
    TITLE "LR_black_phrase_E_03_529"
    INDEX 01 11:36:54
  TRACK 530 AUDIO
    TITLE "LR_black_phrase_E_03_530"
    INDEX 01 11:37:57
  TRACK 531 AUDIO
    TITLE "LR_black_phrase_E_03_531"
    INDEX 01 11:39:05
  TRACK 532 AUDIO
    TITLE "LR_black_phrase_E_03_532"
    INDEX 01 11:39:35
  TRACK 533 AUDIO
    TITLE "LR_black_phrase_E_03_533"
    INDEX 01 11:43:52
  TRACK 534 AUDIO
    TITLE "LR_black_phrase_E_03_534"
    INDEX 01 11:44:30
  TRACK 535 AUDIO
    TITLE "LR_black_phrase_E_03_535"
    INDEX 01 11:48:45
  TRACK 536 AUDIO
    TITLE "LR_black_phrase_E_03_536"
    INDEX 01 11:49:51
  TRACK 537 AUDIO
    TITLE "LR_black_phrase_E_03_537"
    INDEX 01 11:50:68
  TRACK 538 AUDIO
    TITLE "LR_black_phrase_E_03_538"
    INDEX 01 11:51:22
  TRACK 539 AUDIO
    TITLE "LR_black_phrase_E_03_539"
    INDEX 01 11:53:31
  TRACK 540 AUDIO
    TITLE "LR_black_phrase_E_03_540"
    INDEX 01 11:54:11
  TRACK 541 AUDIO
    TITLE "LR_black_phrase_E_03_541"
    INDEX 01 11:56:19
  TRACK 542 AUDIO
    TITLE "LR_black_phrase_E_03_542"
    INDEX 01 11:57:17
  TRACK 543 AUDIO
    TITLE "LR_black_phrase_E_03_543"
    INDEX 01 11:58:30
  TRACK 544 AUDIO
    TITLE "LR_black_phrase_E_03_544"
    INDEX 01 11:58:59
  TRACK 545 AUDIO
    TITLE "LR_black_phrase_E_03_545"
    INDEX 01 12:01:60
  TRACK 546 AUDIO
    TITLE "LR_black_phrase_E_03_546"
    INDEX 01 12:02:34
  TRACK 547 AUDIO
    TITLE "LR_black_phrase_E_03_547"
    INDEX 01 12:05:34
  TRACK 548 AUDIO
    TITLE "LR_black_phrase_E_03_548"
    INDEX 01 12:06:30
  TRACK 549 AUDIO
    TITLE "LR_black_phrase_E_03_549"
    INDEX 01 12:07:60
  TRACK 550 AUDIO
    TITLE "LR_black_phrase_E_03_550"
    INDEX 01 12:08:05
  TRACK 551 AUDIO
    TITLE "LR_black_phrase_E_03_551"
    INDEX 01 12:10:35
  TRACK 552 AUDIO
    TITLE "LR_black_phrase_E_03_552"
    INDEX 01 12:11:05
  TRACK 553 AUDIO
    TITLE "LR_black_phrase_E_03_553"
    INDEX 01 12:13:35
  TRACK 554 AUDIO
    TITLE "LR_black_phrase_E_03_554"
    INDEX 01 12:14:29
  TRACK 555 AUDIO
    TITLE "LR_black_phrase_E_03_555"
    INDEX 01 12:15:40
  TRACK 556 AUDIO
    TITLE "LR_black_phrase_E_03_556"
    INDEX 01 12:15:60
  TRACK 557 AUDIO
    TITLE "LR_black_phrase_E_03_557"
    INDEX 01 12:17:29
  TRACK 558 AUDIO
    TITLE "LR_black_phrase_E_03_558"
    INDEX 01 12:18:01
  TRACK 559 AUDIO
    TITLE "LR_black_phrase_E_03_559"
    INDEX 01 12:19:48
  TRACK 560 AUDIO
    TITLE "LR_black_phrase_E_03_560"
    INDEX 01 12:20:47
  TRACK 561 AUDIO
    TITLE "LR_black_phrase_E_03_561"
    INDEX 01 12:21:68
  TRACK 562 AUDIO
    TITLE "LR_black_phrase_E_03_562"
    INDEX 01 12:22:13
  TRACK 563 AUDIO
    TITLE "LR_black_phrase_E_03_563"
    INDEX 01 12:24:55
  TRACK 564 AUDIO
    TITLE "LR_black_phrase_E_03_564"
    INDEX 01 12:25:25
  TRACK 565 AUDIO
    TITLE "LR_black_phrase_E_03_565"
    INDEX 01 12:27:69
  TRACK 566 AUDIO
    TITLE "LR_black_phrase_E_03_566"
    INDEX 01 12:28:62
  TRACK 567 AUDIO
    TITLE "LR_black_phrase_E_03_567"
    INDEX 01 12:30:08
  TRACK 568 AUDIO
    TITLE "LR_black_phrase_E_03_568"
    INDEX 01 12:30:30
  TRACK 569 AUDIO
    TITLE "LR_black_phrase_E_03_569"
    INDEX 01 12:32:74
  TRACK 570 AUDIO
    TITLE "LR_black_phrase_E_03_570"
    INDEX 01 12:33:44
  TRACK 571 AUDIO
    TITLE "LR_black_phrase_E_03_571"
    INDEX 01 12:36:15
  TRACK 572 AUDIO
    TITLE "LR_black_phrase_E_03_572"
    INDEX 01 12:37:10
  TRACK 573 AUDIO
    TITLE "LR_black_phrase_E_03_573"
    INDEX 01 12:38:24
  TRACK 574 AUDIO
    TITLE "LR_black_phrase_E_03_574"
    INDEX 01 12:38:41
  TRACK 575 AUDIO
    TITLE "LR_black_phrase_E_03_575"
    INDEX 01 12:40:32
  TRACK 576 AUDIO
    TITLE "LR_black_phrase_E_03_576"
    INDEX 01 12:41:02
  TRACK 577 AUDIO
    TITLE "LR_black_phrase_E_03_577"
    INDEX 01 12:42:66
  TRACK 578 AUDIO
    TITLE "LR_black_phrase_E_03_578"
    INDEX 01 12:43:62
  TRACK 579 AUDIO
    TITLE "LR_black_phrase_E_03_579"
    INDEX 01 12:45:00
  TRACK 580 AUDIO
    TITLE "LR_black_phrase_E_03_580"
    INDEX 01 12:45:20
  TRACK 581 AUDIO
    TITLE "LR_black_phrase_E_03_581"
    INDEX 01 12:47:60
  TRACK 582 AUDIO
    TITLE "LR_black_phrase_E_03_582"
    INDEX 01 12:48:30
  TRACK 583 AUDIO
    TITLE "LR_black_phrase_E_03_583"
    INDEX 01 12:50:70
  TRACK 584 AUDIO
    TITLE "LR_black_phrase_E_03_584"
    INDEX 01 12:51:64
  TRACK 585 AUDIO
    TITLE "LR_black_phrase_E_03_585"
    INDEX 01 12:53:15
  TRACK 586 AUDIO
    TITLE "LR_black_phrase_E_03_586"
    INDEX 01 12:53:37
  TRACK 587 AUDIO
    TITLE "LR_black_phrase_E_03_587"
    INDEX 01 12:55:40
  TRACK 588 AUDIO
    TITLE "LR_black_phrase_E_03_588"
    INDEX 01 12:56:12
  TRACK 589 AUDIO
    TITLE "LR_black_phrase_E_03_589"
    INDEX 01 12:58:19
  TRACK 590 AUDIO
    TITLE "LR_black_phrase_E_03_590"
    INDEX 01 12:59:12
  TRACK 591 AUDIO
    TITLE "LR_black_phrase_E_03_591"
    INDEX 01 13:00:43
  TRACK 592 AUDIO
    TITLE "LR_black_phrase_E_03_592"
    INDEX 01 13:00:64
  TRACK 593 AUDIO
    TITLE "LR_black_phrase_E_03_593"
    INDEX 01 13:04:01
  TRACK 594 AUDIO
    TITLE "LR_black_phrase_E_03_594"
    INDEX 01 13:04:52
  TRACK 595 AUDIO
    TITLE "LR_black_phrase_E_03_595"
    INDEX 01 13:07:64
  TRACK 596 AUDIO
    TITLE "LR_black_phrase_E_03_596"
    INDEX 01 13:08:64
  TRACK 597 AUDIO
    TITLE "LR_black_phrase_E_03_597"
    INDEX 01 13:10:12
  TRACK 598 AUDIO
    TITLE "LR_black_phrase_E_03_598"
    INDEX 01 13:10:31
  TRACK 599 AUDIO
    TITLE "LR_black_phrase_E_03_599"
    INDEX 01 13:12:42
  TRACK 600 AUDIO
    TITLE "LR_black_phrase_E_03_600"
    INDEX 01 13:13:12
  TRACK 601 AUDIO
    TITLE "LR_black_phrase_E_03_601"
    INDEX 01 13:15:21
